With: Val Kilmer, Ving Rhames and Luke Goss

Wanneer een shuttle bus verongelukt in de Sierra Mountains stranden twee broers en vier onbekenden in een onweersbui. Het duurt niet lang totdat ze gered worden door een mysterieuze man die iedereen uitnodigt om te schuilen in zijn houten huis in de bossen. Ze zullen hier blijven totdat de storm is gaan liggen, maar het huis heeft andere plannen voor de nieuwe gasten...

The story centers on a group of strangers trapped in a time warp house where a terrible event transpired exactly 100 years prior. 

------------------------ Dutch Friends ------------------------
---------------------------------------------------------------
- Bezoek ook eens mijn vrienden op:  http://www.Film-Test.nl --
----- voor mijn Nederlandse Sync. ondertitels ---- en meer ----
------- http://www.Film-Test.nl ---- voor Films en meer -------
---------------------------------------------------------------

General:

Complete name                    : Seven BelowSeven Below.avi
Format                           : AVI
Format/Info                      : Audio Video Interleave
File size                        : 982 MiB
Duration                         : 1h 32mn
Overall bit rate                 : 1 486 Kbps

Video:

Format                           : MPEG-4 Visual
Format profile                   : Simple@L3
Format settings, BVOP            : No
Format settings, QPel            : No
Format settings, GMC             : No warppoints
Format settings, Matrix          : Default (H.263)
Codec ID                         : XVID
Codec ID/Hint                    : XviD
Duration                         : 1h 32mn
Bit rate                         : 1 027 Kbps
Width                            : 652 pixels
Height                           : 352 pixels
Display aspect ratio             : 1.852
Frame rate                       : 25.000 fps
Color space                      : YUV
Chroma subsampling               : 4:2:0
Bit depth                        : 8 bits
Scan type                        : Progressive
Compression mode                 : Lossy
Bits/(Pixel*Frame)               : 0.179
Stream size                      : 679 MiB (69%)
Writing library                  : XviD 1.1.2 (UTC 2006-11-01)

Audio:

Format                           : AC-3
Format/Info                      : Audio Coding 3
Mode extension                   : CM (complete main)
Codec ID                         : 2000
Duration                         : 1h 32mn
Bit rate mode                    : Constant
Bit rate                         : 448 Kbps
Channel(s)                       : 6 channels
Channel positions                : Front: L C R, Side: L R, LFE
Sampling rate                    : 48.0 KHz
Bit depth                        : 16 bits
Compression mode                 : Lossy
Stream size                      : 296 MiB (30%)
Alignment                        : Aligned on interleaves
Interleave, duration             : 32 ms (0.80 video frame)
Interleave, preload duration     : 192 ms


